<?xml version="1.0" encoding="UTF-8"?>
<svg width="348px" height="216px" viewBox="0 0 348 216" version="1.1" xmlns="http://www.w3.org/2000/svg" xmlns:xlink="http://www.w3.org/1999/xlink">
    <!-- Generator: Sketch 49.3 (51167) - http://www.bohemiancoding.com/sketch -->
    <title>A4</title>
    <desc>Created with Sketch.</desc>
    <defs></defs>
    <g id="A4" stroke="none" stroke-width="1" fill="none" fill-rule="evenodd">
        <g id="lunor" transform="translate(4.000000, 32.000000)" fill="#000000" fill-rule="nonzero">
            <g id="Group" transform="translate(170.000000, 75.888230) scale(-1, 1) rotate(-180.000000) translate(-170.000000, -75.888230) translate(0.000000, 0.057578)">
                <path d="M148.408129,151.488569 C147.486876,151.344623 142.448772,149.962743 141.49873,149.617273 C136.316681,147.745978 132.458933,145.442845 123.822185,139.166808 C121.691787,137.612193 116.106689,131.307367 110.895851,124.513124 C110.377646,123.822185 106.001693,117.45978 105.051651,116.020322 C102.633362,112.335309 100.848434,109.427604 99.0059272,106.232007 C98.4877223,105.368332 97.8831499,104.41829 97.6528366,104.130398 C97.4225233,103.871296 97.2785775,103.583404 97.364945,103.497036 C97.5088908,103.324301 102.719729,104.04403 102.863675,104.245555 C102.921253,104.303133 103.928874,105.915326 105.08044,107.815411 C107.441152,111.61558 111.385267,117.632515 112.565622,119.18713 C112.99746,119.734124 114.062659,121.173582 114.926334,122.353937 C115.818798,123.534293 116.970364,125.060119 117.488569,125.69348 C118.035563,126.355631 118.928027,127.449619 119.475021,128.140559 C121.950889,131.278577 129.666384,138.504657 133.005927,140.865368 C137.784928,144.2337 139.972904,145.414056 143.945809,146.824725 C147.198984,148.00508 150.337003,148.465707 153.935648,148.321761 L156.008467,148.235394 L155.634208,148.955123 C154.54022,151.056732 151.661304,152.064352 148.408129,151.488569 Z" id="Shape"></path>
                <path d="M160.269263,148.638442 C160.960203,146.392887 160.614733,142.074513 159.520745,138.965284 C157.246401,132.545301 153.014395,127.161727 144.665538,120.022015 C141.901778,117.661304 136.374259,113.429297 136.028789,113.429297 C135.942422,113.429297 135.251482,112.968671 134.474174,112.421677 C133.725656,111.874682 132.977138,111.414056 132.861981,111.414056 C132.746825,111.414056 132.314987,111.183743 131.911939,110.867062 C129.176969,108.938188 122.296359,105.713802 116.826418,103.784928 C112.133785,102.115157 105.483489,100.589331 101.769687,100.330229 C100.359018,100.215072 98.8619814,100.099915 98.4589331,100.042337 C98.0558848,99.9559695 97.1634208,99.8408129 96.4724809,99.7544454 C94.8890771,99.5529213 94.6587638,99.3801863 93.5071973,97.3361558 C93.0177815,96.4436918 92.38442,95.407282 92.0965284,95.0042337 C91.8374259,94.6011854 90.599492,92.6723116 89.361558,90.6858594 C85.7917019,84.9280271 80.5520745,77.4716342 77.8458933,74.2760373 C68.2303133,62.9331075 59.276884,54.8721423 51.5325995,50.6113463 C50.5825572,50.0931414 49.8052498,49.5749365 49.8052498,49.4597798 C49.8052498,49.315834 50.2946655,49.2294666 50.8992379,49.2006774 C51.9644369,49.1718882 52.5690093,49.1143099 53.6917866,48.8264183 C54.6994073,48.5673158 59.5359865,51.1583404 64.4877223,54.6130398 C69.6985605,58.2692633 77.96105,66.8484335 83.661304,74.5639289 C87.4326842,79.6596105 93.276884,88.1812024 93.276884,88.5842506 C93.276884,88.6706181 98.1134632,96.1558002 98.3437765,96.4149026 C98.4301439,96.5300593 98.8619814,96.5876376 101.769687,96.8755292 C109.657917,97.6528366 121.087214,101.251482 129.551228,105.598645 C138.187976,110.032176 145.356478,114.926334 151.11431,120.281118 C159.722269,128.342083 163.176969,134.243861 163.695174,141.786622 C163.867909,144.147333 163.81033,144.550381 163.11939,146.248942 C162.370872,148.062659 160.873836,149.991533 160.182896,149.991533 C159.923793,149.991533 159.952583,149.646063 160.269263,148.638442 Z" id="Shape"></path>
                <path d="M76.1473328,142.362405 C74.1896698,141.786622 70.1879763,139.77138 68.0863675,138.331922 C65.4953429,136.546994 62.7027942,133.639289 61.4648603,131.451312 C57.6934801,124.65707 58.6435224,116.42337 63.7679932,111.414056 L65.0635055,110.118544 L64.0558848,112.191363 C61.8391194,116.682472 61.6663844,120.338696 63.364945,125.290432 C65.4089754,131.249788 69.6697714,135.712108 76.723116,139.224386 C78.4792549,140.11685 79.1701948,140.721423 79.1701948,141.354784 C79.1701948,142.419983 77.788315,142.85182 76.1473328,142.362405 Z" id="Shape"></path>
                <path d="M63.911939,105.915326 C68.7773074,101.395428 76.3488569,97.8831499 83.2006774,97.0482642 C85.446232,96.7603726 85.7917019,96.8179509 85.7917019,97.4225233 C85.7917019,97.6240474 86.0795936,98.1422523 86.3962743,98.5740898 C86.7417443,99.0059272 86.9720576,99.4089754 86.9144793,99.4665538 C86.8569009,99.5241321 85.8204911,99.6392887 84.6401355,99.7256562 C83.4597798,99.8120237 82.1642676,99.9559695 81.7612193,100.013548 C81.358171,100.071126 80.3217612,100.215072 79.4580864,100.330229 C75.1972904,100.848434 68.6045724,103.295512 65.0635055,105.627434 C62.7027942,107.210838 62.4724809,107.268417 63.911939,105.915326 Z" id="Shape"></path>
                <path d="M335.077053,98.4013548 C334.530059,97.911939 333.061812,96.7027942 331.795089,95.7527519 C330.557155,94.7739204 329.290432,93.5935648 328.973751,93.0753599 C327.64945,90.7722269 328.225233,86.9720576 330.03895,86.2235394 C331.190517,85.7341236 331.363251,85.8780694 331.363251,87.2023709 C331.363251,88.8145639 332.601185,90.9737511 334.040644,91.8950042 C337.293819,93.9390347 340,96.8179509 340,98.2286198 C340,98.8907705 338.934801,99.322608 337.26503,99.322608 C336.257409,99.322608 335.854361,99.149873 335.077053,98.4013548 Z" id="Shape"></path>
                <path d="M224.555461,96.8179509 C221.561389,95.7527519 219.402202,94.6875529 217.099069,93.1617273 C211.398815,89.361558 205.900085,84.6689246 198.904318,77.61558 C197.320914,76.0321761 196.054191,74.8518205 196.054191,74.9669771 C196.054191,75.1109229 196.716342,76.1185436 197.551228,77.2701101 C198.357324,78.3928874 198.789162,79.1126164 198.50127,78.8823031 C197.752752,78.3065199 194.470787,74.9669771 191.793395,72.1168501 C190.61304,70.850127 188.972058,69.0939881 188.137172,68.2303133 C186.899238,66.934801 180.248942,59.2480948 178.521592,57.146486 C177.917019,56.3979678 175.729043,53.3751058 174.46232,51.5038103 C172.73497,48.9991533 171.640982,47.7900085 169.481795,46.0050804 C168.359018,45.0550381 167.23624,44.1049958 167.005927,43.9034716 C166.57409,43.4716342 166.084674,41.2548688 166.314987,40.6790855 C166.746825,39.5563082 170.518205,40.9669771 173.195597,43.2413209 C173.972904,43.9322608 175.412362,45.5156647 176.333616,46.7823878 C180.680779,52.6553768 187.331075,60.7451312 191.879763,65.6392887 C197.752752,72.0016935 208.491109,82.5097375 211.88823,85.2447079 C212.607959,85.8204911 213.96105,86.9432684 214.911092,87.7205758 C218.653683,90.7434378 222.022015,92.8162574 224.555461,93.5935648 C225.275191,93.7950889 225.937341,94.1117697 226.052498,94.2845047 C226.397968,94.7451312 226.3116,95.954276 225.879763,96.5300593 C225.476715,97.0482642 225.275191,97.0770533 224.555461,96.8179509 Z" id="Shape"></path>
                <path d="M271.049958,95.8966977 C262.269263,92.1828959 255.734124,87.0584251 247.903472,77.7595258 C246.377646,75.9458086 244.938188,74.1608806 244.707875,73.8154107 C244.477561,73.4699407 243.757832,72.4911092 243.095682,71.6562235 C239.237934,66.5893311 235.23624,59.8238781 233.480102,55.4191363 C232.789162,53.6917866 232.530059,52.6265876 232.530059,51.2159187 C232.50127,49.0567316 232.933108,48.1066892 234.430144,47.2142252 L235.351397,46.638442 L235.668078,48.7400508 C235.840813,49.8916173 236.474174,51.9356478 237.078747,53.2887384 C238.863675,57.4055885 239.986452,59.276884 244.995766,66.6469094 C246.435224,68.7773074 251.703641,75.3412362 254.352244,78.2777307 C260.052498,84.6401355 267.767993,91.0313294 272.115157,92.9889924 C273.122777,93.449619 275.800169,96.1845893 275.800169,96.7891617 C275.800169,97.364945 273.410669,96.9043184 271.049958,95.8966977 Z" id="Shape"></path>
                <path d="M229.823878,96.1845893 C229.881456,95.8679086 229.737511,94.3996613 229.449619,92.9026249 C229.046571,90.5419136 228.787468,89.9085521 227.549534,88.0660457 C225.332769,84.726503 219.862828,77.8171041 217.329382,75.1397121 C216.926334,74.7078747 211.54276,68.5469941 210.53514,67.3666384 C206.878916,63.0770533 202.675699,57.1176969 201.23624,54.2099915 C199.278577,50.2946655 199.624047,47.4157494 202.157494,46.7823878 C202.877223,46.6096528 202.934801,46.6672312 203.107536,47.703641 C203.769687,51.446232 209.8442,60.0829805 218.740051,69.9000847 C220.064352,71.3683319 226.34039,78.8823031 226.858594,79.6308213 C227.088908,79.9762913 227.837426,80.9839119 228.528366,81.8475868 C231.493649,85.7917019 232.616427,88.6130398 232.616427,92.2980525 C232.616427,94.6011854 232.587638,94.7163421 231.637595,95.6951736 C230.572396,96.8467401 229.564776,97.1058425 229.823878,96.1845893 Z" id="Shape"></path>
                <path d="M280.607959,94.6011854 C280.780694,92.3556308 280.204911,89.7358171 278.909399,86.9432684 C276.750212,82.3082134 275.944115,79.1701948 276.145639,76.3776461 L276.232007,74.9957663 L274.41829,74.9957663 C272.69094,74.9957663 272.546994,74.938188 272.143946,74.1608806 C271.913633,73.700254 271.021169,72.2895851 270.157494,71.0516511 C269.293819,69.784928 268.602879,68.6909399 268.602879,68.6333616 C268.602879,68.3166808 262.240474,60.1981372 259.735817,57.2904318 C256.338696,53.3175275 251.415749,48.5673158 249.112616,47.0127011 C247.011008,45.573243 243.469941,43.9034716 242.030483,43.6443692 C239.72735,43.2125318 235.063506,43.1837426 233.422523,43.5867909 C231.867909,43.9322608 231.781541,43.9322608 232.040644,43.4716342 C232.558848,42.5215919 234.027096,41.3412362 235.408975,40.7942422 C236.992379,40.1896698 241.253175,40.045724 243.124471,40.5639289 C244.160881,40.8518205 245.859441,41.657917 249.026249,43.3852667 C250.206605,44.0186283 253.402202,46.1778154 253.949196,46.6960203 C254.179509,46.8975445 254.81287,47.4157494 255.359865,47.8475868 C257.029636,49.1143099 261.088908,53.2023709 264.025402,56.5707028 C267.336156,60.3996613 269.668078,63.4225233 273.324301,68.6621507 C276.001693,72.5198984 275.800169,72.3471634 276.951736,71.8865368 C277.49873,71.6850127 278.132091,71.5122777 278.333616,71.5698561 C278.506351,71.5986452 278.794242,71.6274344 278.938188,71.6562235 C279.053345,71.6562235 279.254869,72.9517358 279.341236,74.5063506 C279.485182,77.0973751 279.629128,77.61558 281.356478,81.9051651 C283.918713,88.3251482 284.35055,90.6570703 283.429297,93.3056732 C282.939881,94.6587638 282.421677,95.3209145 281.212532,96.1845893 L280.464014,96.7315834 L280.607959,94.6011854 Z" id="Shape"></path>
                <path d="M148.811177,95.6375953 C147.544454,94.9754445 146.939881,94.3708721 145.442845,92.2692633 C144.435224,90.8298052 142.995766,89.0448772 142.247248,88.2387807 C141.15326,87.0872142 137.72735,82.9991533 135.395428,80.0338696 C135.222693,79.8035563 134.013548,78.3065199 132.718036,76.723116 C131.422523,75.1397121 129.723963,73.0668925 128.946655,72.1168501 C128.198137,71.1668078 126.441998,69.0364098 125.060119,67.3666384 C123.707028,65.6968671 121.979678,63.5088908 121.259949,62.4724809 C120.511431,61.4360711 119.84928,60.5436071 119.762913,60.4572396 C118.81287,59.6223539 115.530906,53.8933108 114.983912,52.1371719 C114.091448,49.2006774 114.811177,46.9839119 116.682472,46.8399661 C117.45978,46.7823878 117.546147,46.8975445 118.294666,49.0855207 C118.726503,50.3522439 119.244708,51.7053345 119.475021,52.1083827 C120.137172,53.403895 123.275191,57.9813717 124.628281,59.6223539 C125.34801,60.514818 126.355631,61.7239627 126.816257,62.3285351 C127.305673,62.9618967 129.292125,65.4089754 131.278577,67.827265 C133.26503,70.2167655 135.280271,72.6926334 135.769687,73.2972058 C136.259102,73.9305673 137.72735,75.7154953 139.022862,77.2988992 C140.318374,78.8823031 142.966977,82.1354784 144.895851,84.4961897 C146.795936,86.8856901 149.04149,89.5918713 149.847587,90.5419136 C150.624894,91.491956 151.718882,92.9602032 152.265876,93.7950889 C153.18713,95.2633362 153.215919,95.3209145 152.726503,95.8679086 C152.006774,96.6740051 150.624894,96.5876376 148.811177,95.6375953 Z" id="Shape"></path>
                <path d="M175.988146,95.9254869 C174.635055,95.5512278 174.145639,95.1481795 172.73497,93.276884 C172.331922,92.7586791 170.863675,90.9161727 169.424217,89.1600339 C168.013548,87.4326842 166.57409,85.6765453 166.257409,85.2447079 C165.940728,84.8128704 164.386113,82.9127858 162.80271,81.0127011 C159.00254,76.4640135 155.9221,72.6926334 154.252329,70.6486029 C150.999153,66.5029636 150.308213,65.6104996 148.292972,62.9043184 C147.112616,61.3209145 145.788315,59.5647756 145.356478,58.9889924 C144.204911,57.491956 141.671465,52.3099069 141.469941,51.0431837 C141.210838,49.4309907 141.930567,47.9339543 143.22608,47.3005927 C144.435224,46.7248095 144.665538,46.8975445 144.982218,48.7976291 C145.356478,51.0143946 147.256562,54.3251482 150.826418,58.8738357 C151.949196,60.3132938 153.791702,62.7027942 154.943268,64.1998307 C157.217612,67.1651143 162.543607,73.7578323 168.416596,80.8687553 C169.280271,81.9339543 170.403048,83.2870449 170.863675,83.8916173 C171.353091,84.4961897 172.504657,85.9356478 173.454699,87.0872142 C174.404742,88.2387807 175.700254,89.8509738 176.333616,90.6570703 C176.966977,91.491956 177.917019,92.6723116 178.435224,93.3056732 C180.364098,95.7239627 179.298899,96.8755292 175.988146,95.9254869 Z" id="Shape"></path>
                <path d="M204.201524,94.0541914 C203.453006,92.9602032 202.330229,91.4055885 201.754445,90.599492 C200.487722,88.8145639 200.142252,88.3539373 197.11939,84.0643522 C195.823878,82.2218459 194.470787,80.3505504 194.125318,79.918713 C192.743438,78.1913633 193.607113,78.853514 197.436071,82.5673158 C199.595258,84.6689246 202.675699,87.4902625 204.259102,88.8721423 C209.182049,93.104149 210.103302,94.3132938 209.325995,95.5224386 C209.182049,95.7527519 208.433531,95.9254869 207.339543,95.954276 L205.583404,96.0118544 L204.201524,94.0541914 Z" id="Shape"></path>
                <path d="M312.823031,95.234547 C312.074513,94.2845047 311.527519,93.5071973 309.656224,90.7146486 C308.07282,88.4115157 307.410669,87.4326842 304.128704,82.8264183 C303.034716,81.2718036 301.940728,79.6883997 301.710415,79.3429297 C301.480102,78.9974598 300.933108,78.2777307 300.530059,77.7307367 C299.407282,76.2049111 299.176969,75.7442845 299.867909,76.3200677 C300.1558,76.5791702 301.393734,77.5867909 302.57409,78.5656224 C303.754445,79.5444539 304.877223,80.465707 305.078747,80.6096528 C310.433531,84.8704488 312.045724,86.5977985 316.191363,92.4995766 C318.03387,95.1193903 317.803556,95.8966977 315.097375,95.954276 C313.629128,96.0118544 313.370025,95.9254869 312.823031,95.234547 Z" id="Shape"></path>
                <path d="M193.232854,95.407282 C192.3116,94.9178662 191.822185,93.9390347 192.138865,93.1329382 C192.254022,92.7874682 192.858594,92.7011008 194.988992,92.7011008 L197.695174,92.7011008 L198.530059,93.9390347 C198.961897,94.6011854 199.422523,95.2921253 199.53768,95.4360711 C199.681626,95.6088061 198.760373,95.7527519 196.975445,95.8103302 C194.845047,95.8391194 193.952583,95.7527519 193.232854,95.407282 Z" id="Shape"></path>
                <path d="M301.249788,95.5224386 C300.011854,94.8602879 299.522439,93.2193057 300.443692,92.8738357 C300.702794,92.7874682 301.940728,92.7011008 303.23624,92.7011008 L305.596952,92.7011008 L306.546994,94.0829805 C307.03641,94.8314987 307.468247,95.5512278 307.468247,95.6663844 C307.468247,95.9830652 301.911939,95.8391194 301.249788,95.5224386 Z" id="Shape"></path>
                <path d="M320.682472,86.9432684 C319.818798,86.338696 318.552075,85.3886537 317.832345,84.8704488 C316.220152,83.6900931 312.391194,80.7248095 309.656224,78.508044 C308.533446,77.61558 307.497036,76.7519052 307.324301,76.6367485 C307.180356,76.5215919 305.769687,75.3988146 304.186283,74.1608806 C301.393734,71.915326 301.077053,71.9441152 302.804403,74.2472481 C303.812024,75.6003387 303.207451,75.2836579 300.933108,73.2684166 C297.363251,70.1016088 293.793395,66.1287045 288.265876,59.3056732 C281.558002,50.9856054 279.88823,48.9991533 277.297206,46.3505504 C274.159187,43.1261643 273.324301,41.657917 274.101609,40.7078747 C274.821338,39.8154107 276.80779,40.3911939 279.110923,42.1761219 C281.011008,43.6443692 284.120237,46.6672312 285.444539,48.3945809 C287.80525,51.446232 290.396274,54.8721423 290.770533,55.3903472 C292.037257,57.2328535 297.651143,63.6240474 300.414903,66.3590178 C303.293819,69.237934 309.627434,74.8518205 312.477561,77.0110076 C313.082134,77.5004234 314.57917,78.6519898 315.817104,79.6020322 C317.026249,80.5520745 319.329382,82.3370025 320.941575,83.5749365 C322.553768,84.8128704 323.878069,85.8780694 323.878069,85.9356478 C323.878069,86.3674852 322.84166,88.0948349 322.582557,88.0948349 C322.409822,88.0948349 321.546147,87.57663 320.682472,86.9432684 Z" id="Shape"></path>
                <path d="M326.756986,83.4309907 C326.756986,83.315834 327.361558,82.596105 328.110076,81.9051651 C329.981372,80.0914479 332.399661,79.4868755 334.674005,80.2353937 C335.911939,80.6672312 336.257409,81.0127011 336.257409,81.9915326 C336.257409,82.596105 336.027096,82.7400508 335.077053,82.6536833 C334.817951,82.6248942 334.011854,82.7976291 333.263336,83.0567316 C332.226926,83.4022015 331.708721,83.4309907 330.845047,83.2006774 C330.03895,82.9991533 329.34801,83.0279424 328.254022,83.315834 C327.419136,83.5173582 326.756986,83.5749365 326.756986,83.4309907 Z" id="Shape"></path>
                <path d="M167.121084,55.0160881 C166.027096,53.9796782 161.017782,49.8052498 159.290432,48.4809483 C158.052498,47.5884843 155.259949,45.9475021 152.899238,44.7671465 L150.76884,43.7019475 L146.191363,43.6443692 C143.686706,43.6443692 141.642676,43.5867909 141.642676,43.5580017 C141.642676,43.5004234 142.103302,42.9534293 142.679086,42.3488569 C145.730737,38.9517358 151.891617,39.8154107 159.204064,44.7095682 C166.689246,49.7188823 169.856054,52.6265876 169.856054,54.4978831 C169.856054,55.1312447 168.96359,56.1388654 168.416596,56.1388654 C168.330229,56.1388654 167.754445,55.6494496 167.121084,55.0160881 Z" id="Shape"></path>
                <path d="M225.793395,54.9009314 C225.131245,54.3827265 222.972058,52.6553768 221.014395,51.0431837 C216.868755,47.703641 214.882303,46.3505504 212.032176,45.0262489 C209.815411,44.0186283 206.648603,43.1549534 206.159187,43.4716342 C205.813717,43.6731583 204.69094,43.61558 202.819644,43.3564776 C202.157494,43.2413209 201.26503,43.2988992 200.861981,43.442845 C199.825572,43.8458933 199.88315,43.442845 200.977138,42.1761219 C202.502964,40.4487722 203.251482,40.2184589 206.41829,40.3911939 C209.297206,40.5351397 211.341236,41.1397121 214.767146,42.8382727 C218.135478,44.4792549 223.087214,48.1066892 226.34039,51.3022862 C228.010161,52.9144793 228.298052,53.3463167 228.298052,54.1812024 C228.298052,55.1600339 227.866215,55.8797629 227.319221,55.8221846 C227.146486,55.8221846 226.455546,55.3903472 225.793395,54.9009314 Z" id="Shape"></path>
                <path d="M138.04403,54.9872989 C137.928874,54.8145639 136.34547,53.3751058 134.502964,51.7917019 C130.84674,48.6536833 127.593565,46.3793395 124.34039,44.7383573 L122.209992,43.6731583 L118.294666,43.6443692 L114.35055,43.61558 L114.868755,42.895851 C116.797629,40.1896698 119.215919,39.8441998 124.369179,41.5139712 C125.405588,41.8594412 126.845047,42.4928027 127.564776,42.9534293 C128.284505,43.3852667 128.975445,43.7595258 129.090601,43.7595258 C129.349704,43.7595258 133.840813,47.2142252 135.971211,49.0279424 C137.295512,50.2082981 137.612193,50.6401355 137.612193,51.3598645 C137.640982,51.8492803 137.871296,52.9432684 138.159187,53.7781541 C138.619814,55.1024555 138.533446,55.7933954 138.04403,54.9872989 Z" id="Shape"></path>
                <path d="M104.504657,49.661304 C101.683319,48.0779001 100.502964,47.5884843 97.7392041,46.7248095 C96.1558002,46.2353937 94.0254022,45.6883997 92.9889924,45.4868755 C91.9525826,45.3141406 90.8298052,45.1414056 90.5131245,45.0550381 C89.7646063,44.9398815 88.0084674,44.6519898 86.6553768,44.4504657 C86.1083827,44.3640982 85.3310754,44.2489416 84.9280271,44.1625741 C84.5249788,44.1049958 83.5749365,43.96105 82.76884,43.8746825 C81.9915326,43.788315 80.6960203,43.61558 79.8899238,43.4716342 C75.1685013,42.6655377 57.2904318,43.0685859 48.5097375,44.1913633 C48.0491109,44.2489416 46.8687553,44.3640982 45.918713,44.4792549 C44.9686706,44.5944115 43.9322608,44.7383573 43.61558,44.7959356 C43.2988992,44.853514 42.3488569,44.9686706 41.5139712,45.0838273 C40.6790855,45.1701948 39.7578323,45.2853514 39.4699407,45.3429297 C36.2167655,45.9762913 32.4741744,45.9762913 29.6528366,45.400508 C28.4724809,45.1701948 26.8602879,44.8823031 26.0541914,44.7671465 C24.6147333,44.5944115 23.9525826,44.508044 21.7358171,44.1625741 C21.1024555,44.0762066 18.2811177,43.9322608 15.4309907,43.8746825 C10.1337849,43.7307367 6.6215072,44.1049958 3.3107536,45.1126164 C1.00762066,45.8035563 0,46.0050804 0,45.8035563 C0,45.3141406 1.78492803,43.7307367 3.05165114,43.0973751 C4.40474174,42.4064352 8.29127858,41.3124471 10.3640982,41.0245555 C11.6883997,40.8518205 22.5131245,40.8518205 24.1828959,41.0245555 C24.9026249,41.1109229 26.1405588,41.2260796 26.9178662,41.3124471 C27.7239627,41.3988146 28.6164268,41.5139712 28.9331075,41.5715495 C29.2497883,41.6291279 30.0270957,41.7442845 30.6604572,41.830652 C31.2938188,41.9458086 32.4741744,42.1185436 33.2514818,42.2337003 C35.7561389,42.6367485 41.1685013,42.4640135 45.0550381,41.8882303 C46.9263336,41.6003387 47.9915326,41.4563929 49.5173582,41.3412362 C50.381033,41.2548688 51.8204911,41.1109229 52.684166,41.0245555 C56.3116003,40.6790855 56.9737511,40.6215072 59.449619,40.4775614 C71.2819644,39.7578323 81.9915326,39.872989 86.684166,40.7366638 C95.0042337,42.2912786 101.712108,44.6232007 104.965284,47.1278577 C105.972904,47.876376 106.692633,49.2582557 106.404742,49.9491956 C106.203218,50.5249788 106.001693,50.4961897 104.504657,49.661304 Z" id="Shape"></path>
                <path d="M172.475868,26.4284505 C172.187976,25.7375106 171.525826,24.1541067 171.007621,22.8873836 C170.489416,21.6206605 169.625741,19.57663 169.078747,18.338696 C168.560542,17.1007621 168.128704,15.8916173 168.128704,15.6900931 C168.128704,14.6824725 167.6105,15.488569 166.286198,18.511431 C165.508891,20.2675699 164.386113,22.8298052 163.781541,24.1541067 L162.716342,26.6011854 L161.104149,26.6011854 C159.376799,26.6299746 159.261643,26.5436071 159.923793,25.3920406 C160.154107,24.9602032 160.758679,23.6359018 161.305673,22.4555461 C164.328535,15.7188823 167.668078,8.63674852 167.812024,8.63674852 C167.898391,8.63674852 168.387807,9.64436918 168.906012,10.8823031 C169.395428,12.0914479 170.34547,14.3945809 171.007621,15.9779848 C171.640982,17.5613887 172.3895,19.3175275 172.648603,19.8645216 L173.109229,20.8721423 L173.483489,20.0084674 C174.779001,16.9568163 176.650296,12.465707 177.398815,10.5368332 C177.974598,9.06858594 178.348857,8.40643522 178.492803,8.66553768 C179.241321,10.0474174 186.553768,26.1117697 186.553768,26.342083 C186.553768,26.514818 185.862828,26.6011854 185.056732,26.6011854 C183.271804,26.5436071 183.646063,27.0906012 180.767146,20.4403048 C179.644369,17.8204911 178.607959,15.5749365 178.492803,15.4597798 C178.406435,15.3446232 177.88823,16.2370872 177.398815,17.4750212 C176.909399,18.7129551 175.901778,21.1600339 175.182049,22.8873836 C174.433531,24.6435224 173.742591,26.342083 173.685013,26.7163421 C173.42591,27.8103302 173.022862,27.7239627 172.475868,26.4284505 Z" id="Shape"></path>
                <path d="M61.8966977,27.061812 C58.1828959,26.342083 55.6494496,23.6359018 55.0160881,19.6054191 C54.3251482,15.2870449 56.1388654,11.573243 59.8526672,9.64436918 C60.5436071,9.29889924 61.4936494,9.15495343 63.1634208,9.15495343 C65.4953429,9.18374259 66.7044877,9.50042337 68.2591025,10.5656224 C69.0364098,11.0838273 71.1092295,13.4445385 71.1092295,13.7612193 C71.1092295,13.9627434 68.7485182,15.315834 68.6621507,15.2006774 C67.1363251,12.8687553 65.5241321,11.8323455 63.3937341,11.8035563 C61.8103302,11.8035563 60.5436071,12.3505504 59.3920406,13.5596952 C58.4995766,14.5385267 57.6646909,16.726503 58.0101609,17.3022862 C58.1253175,17.4750212 60.6011854,17.5613887 64.7180356,17.5613887 L71.2531753,17.5325995 L71.1668078,19.1735817 C71.022862,22.3691787 69.3530906,24.9889924 66.6756986,26.1981372 C64.6892464,27.0906012 63.364945,27.3497036 61.8966977,27.061812 Z M64.5453006,24.1253175 C65.149873,23.9525826 66.042337,23.3767993 66.5317528,22.8873836 C67.4817951,21.9373412 68.3166808,20.3251482 68.0287892,20.0372566 C67.7121084,19.7205758 58.1541067,19.8357324 58.1541067,20.1524132 C58.1541067,21.5630821 59.9102456,23.4631668 61.7527519,24.1253175 C62.9043184,24.5283658 63.2209992,24.5283658 64.5453006,24.1253175 Z" id="Shape"></path>
                <path d="M130.242168,26.8890771 C126.096528,26.0541914 123.793395,22.8873836 123.793395,17.9932261 C123.793395,14.0491109 125.261643,11.3717189 128.255715,9.9322608 C129.580017,9.27011008 130.213378,9.15495343 132.113463,9.15495343 C134.157494,9.15495343 134.61812,9.27011008 136.201524,10.1049958 C137.871296,10.9974598 139.627434,12.811177 139.627434,13.6748518 C139.627434,13.8475868 139.138019,14.2794242 138.562235,14.596105 L137.468247,15.2006774 L136.34547,13.9051651 C135.021169,12.4081287 133.812024,11.8035563 132.084674,11.8035563 C129.378493,11.8323455 126.902625,13.9915326 126.845047,16.4098222 L126.816257,17.4174428 L133.380186,17.4174428 L139.915326,17.4174428 L139.915326,18.7993226 C139.915326,24.1541067 135.366638,27.954276 130.242168,26.8890771 Z M133.178662,24.1541067 C133.898391,23.9525826 134.819644,23.4343776 135.337849,22.9161727 C136.287892,21.9949196 137.093988,20.469094 136.863675,20.0948349 C136.662151,19.7781541 127.017782,19.8069433 126.845047,20.123624 C126.672312,20.3827265 128.054191,22.6858594 128.745131,23.2616427 C129.14818,23.5783235 131.134632,24.4132091 131.652837,24.4419983 C131.796782,24.4707875 132.458933,24.3268417 133.178662,24.1541067 Z" id="Shape"></path>
                <path d="M212.809483,27.0330229 C210.823031,26.6587638 208.721423,25.3632515 207.656224,23.8086367 C206.41829,21.9661304 206.015241,20.4978831 206.015241,17.6765453 C206.015241,15.7476715 206.159187,15.0855207 206.792549,13.7900085 C208.375953,10.5656224 210.592718,9.15495343 214.220152,9.15495343 C215.861135,9.15495343 216.782388,9.3276884 217.818798,9.78831499 C219.200677,10.3928874 221.964437,12.9839119 221.964437,13.6460627 C221.964437,14.1642676 219.574936,15.4022015 219.430991,14.9703641 C219.171888,14.2506351 217.617273,12.7248095 216.667231,12.2641829 C214.30652,11.1414056 211.19729,12.1202371 209.815411,14.3945809 C209.383573,15.1143099 209.009314,16.0931414 208.951736,16.553768 L208.865368,17.4174428 L215.486876,17.4750212 L222.108383,17.5325995 L222.079594,19.2023709 C221.993226,24.1253175 217.530906,27.8966977 212.809483,27.0330229 Z M216.552075,23.7222693 C217.530906,23.2328535 219.085521,21.1600339 219.085521,20.3827265 C219.085521,19.8933108 218.797629,19.8645216 214.133785,19.9220999 C209.325995,20.0084674 209.15326,20.0372566 209.239627,20.5842506 C209.383573,21.4767146 210.477561,22.9161727 211.398815,23.4631668 C213.183743,24.5283658 214.824725,24.6147333 216.552075,23.7222693 Z" id="Shape"></path>
                <path d="M250.609653,26.9466554 C246.521592,25.9678239 244.132091,22.6570703 244.132091,18.0220152 C244.132091,14.4521592 245.54276,11.7747671 248.335309,10.0762066 C249.65961,9.27011008 250.091448,9.15495343 251.962743,9.15495343 C254.352244,9.15495343 255.273497,9.44284505 256.799323,10.6519898 C257.403895,11.1414056 257.979678,11.5156647 258.066046,11.5156647 C258.152413,11.5156647 258.238781,11.0550381 258.238781,10.508044 L258.238781,9.50042337 L259.678239,9.50042337 L261.117697,9.50042337 L261.060119,18.0220152 L260.973751,26.5723963 L259.591871,26.6011854 L258.238781,26.6299746 L258.238781,25.5647756 C258.238781,24.9602032 258.152413,24.4707875 258.066046,24.4707875 C257.979678,24.4707875 257.375106,24.9026249 256.712955,25.449619 C254.84166,26.9466554 252.76884,27.4648603 250.609653,26.9466554 Z M254.121931,24.1253175 C256.569009,23.4631668 258.238781,21.1024555 258.238781,18.2235394 C258.238781,14.5097375 255.878069,11.8035563 252.624894,11.8035563 C249.429297,11.8035563 247.011008,14.5385267 247.011008,18.165961 C247.011008,20.5842506 248.335309,22.9449619 250.120237,23.6934801 C252.221846,24.5859441 252.308213,24.5859441 254.121931,24.1253175 Z" id="Shape"></path>
                <path d="M290.338696,26.8890771 C289.734124,26.6875529 288.956816,26.1981372 288.611346,25.7950889 C287.80525,24.8450466 287.603726,24.8450466 287.603726,25.8526672 C287.603726,26.6011854 287.546147,26.6299746 286.250635,26.6011854 L284.868755,26.5723963 L284.782388,18.0220152 L284.724809,9.50042337 L286.135478,9.50042337 L287.546147,9.50042337 L287.661304,15.3446232 C287.747671,20.5554615 287.834039,21.3039797 288.381033,22.4843353 C289.129551,24.1541067 290.511431,24.7874682 291.9221,24.0965284 C292.756986,23.6646909 292.756986,23.6646909 293.505504,24.9026249 C294.369179,26.3996613 294.369179,26.3708721 293.735817,26.5723963 C293.447925,26.6587638 292.814564,26.8602879 292.325148,27.0042337 C291.691787,27.2057578 291.116003,27.1769687 290.338696,26.8890771 Z" id="Shape"></path>
                <path d="M88.0948349,26.5436071 C88.0948349,26.4860288 89.8509738,23.0025402 91.9813717,18.7993226 C94.1117697,14.596105 95.8103302,11.0550381 95.7527519,10.9686706 C95.6951736,10.8823031 94.7163421,8.86706181 93.5647756,6.47756139 C92.4132091,4.11685013 91.2328535,1.66977138 90.9161727,1.06519898 L90.3979678,0 L92.0677392,0 L93.7662997,0 L94.5723963,1.81371719 C95.3497036,3.54106689 96.8179509,6.65029636 100.646909,14.6248942 C101.65453,16.7552921 102.489416,18.5402202 102.489416,18.5977985 C102.489416,18.6553768 103.266723,20.296359 104.187976,22.2252329 C105.138019,24.1828959 105.944115,25.9390347 106.001693,26.1405588 C106.059272,26.4572396 105.685013,26.5436071 104.533446,26.5436071 L102.950042,26.5723963 L100.762066,21.7646063 C99.5241321,19.1447925 98.3437765,16.4674005 98.084674,15.834039 C97.6528366,14.7400508 97.0482642,14.2794242 97.019475,15.0567316 C96.9906859,15.2294666 95.7239627,17.9068586 94.1981372,20.9872989 L91.4055885,26.5436071 L89.7358171,26.6011854 C88.8433531,26.6011854 88.0948349,26.6011854 88.0948349,26.5436071 Z" id="Shape"></path>
            </g>
        </g>
    </g>
</svg>